<?xml version="1.0" encoding="UTF-8" ?>
<svg version="1.1" width="400" height="450" xmlns="http://www.w3.org/2000/svg" shape-rendering="crispEdges">
<rect x="0" y="0" width="1" height="1" fill="#FFFFFF" opacity="0.062745" />
<rect x="1" y="0" width="150" height="1" fill="#FFFFFF" opacity="0.250980" />
<rect x="250" y="0" width="1" height="1" fill="#FFFFFF" opacity="0.062745" />
<rect x="251" y="0" width="149" height="1" fill="#FFFFFF" opacity="0.250980" />
<rect x="0" y="1" width="1" height="449" fill="#FFFFFF" opacity="0.250980" />
<rect x="1" y="1" width="150" height="449" fill="#FFFFFF" />
<rect x="250" y="1" width="1" height="50" fill="#FFFFFF" opacity="0.250980" />
<rect x="251" y="1" width="149" height="150" fill="#FFFFFF" />
<rect x="201" y="51" width="50" height="349" fill="#FFFFFF" />
<rect x="151" y="101" width="50" height="249" fill="#FFFFFF" />
<rect x="251" y="151" width="99" height="50" fill="#FFFFFF" />
<rect x="350" y="151" width="1" height="50" fill="#FFFFFF" opacity="0.501961" />
<rect x="251" y="201" width="49" height="249" fill="#FFFFFF" />
<rect x="300" y="201" width="1" height="49" fill="#FFFFFF" opacity="0.752941" />
<rect x="300" y="250" width="1" height="1" fill="#FFFFFF" opacity="0.815686" />
<rect x="301" y="250" width="49" height="1" fill="#FFFFFF" opacity="0.250980" />
<rect x="350" y="250" width="1" height="1" fill="#FFFFFF" opacity="0.125490" />
<rect x="300" y="251" width="50" height="199" fill="#FFFFFF" />
<rect x="350" y="251" width="1" height="49" fill="#FFFFFF" opacity="0.501961" />
<rect x="350" y="300" width="1" height="1" fill="#FFFFFF" opacity="0.752941" />
<rect x="351" y="300" width="49" height="1" fill="#FFFFFF" opacity="0.501961" />
<rect x="350" y="301" width="50" height="149" fill="#FFFFFF" />
<rect x="151" y="350" width="50" height="1" fill="#FFFFFF" opacity="0.501961" />
<rect x="201" y="400" width="49" height="1" fill="#FFFFFF" opacity="0.250980" />
<rect x="250" y="400" width="1" height="1" fill="#FFFFFF" opacity="0.439216" />
<rect x="250" y="401" width="1" height="49" fill="#FFFFFF" opacity="0.250980" />
</svg>