<svg version="1.1" id="Layer_1" xmlns="http://www.w3.org/2000/svg" xmlns:xlink="http://www.w3.org/1999/xlink" x="0px" y="0px"
	 width="100%" viewBox="0 0 416 416" enable-background="new 0 0 416 416" xml:space="preserve">
<path fill="#000000" opacity="1.000000" stroke="none" 
	d="
M374.468628,417.000000 
	C373.883698,414.678162 373.667236,412.356384 373.666046,410.034485 
	C373.645508,369.883026 373.659149,329.731567 373.645630,289.580109 
	C373.642578,280.453430 374.391144,281.404053 365.195557,281.369781 
	C354.366455,281.329437 343.533752,281.197601 332.709625,281.430664 
	C328.667877,281.517700 327.542084,280.007019 327.593414,276.199066 
	C327.755035,264.205841 327.535187,252.207367 327.709198,240.214493 
	C327.763123,236.498016 326.477142,235.260757 322.796936,235.307556 
	C310.470367,235.464233 298.138977,235.250275 285.812653,235.416519 
	C281.997284,235.467987 280.512970,234.338211 280.581512,230.317139 
	C280.794464,217.825485 280.813171,205.325104 280.579254,192.834229 
	C280.498383,188.515488 282.201965,187.505402 286.160126,187.569397 
	C297.985779,187.760620 309.820557,187.451309 321.643524,187.712509 
	C326.188995,187.812912 327.835388,186.439911 327.734558,181.774490 
	C327.475464,169.784668 327.769775,157.783600 327.584045,145.791061 
	C327.524261,141.930664 328.706665,140.512817 332.699005,140.589279 
	C344.023834,140.806183 355.355621,140.664978 366.684662,140.656433 
	C373.636139,140.651199 373.649139,140.644302 373.649750,133.860443 
	C373.653412,92.042946 373.648926,50.225441 373.655487,8.407943 
	C373.655823,6.243541 373.732666,4.079152 373.886963,1.457379 
	C388.320831,1.000000 402.641663,1.000000 416.956421,1.000003 
	C416.950348,139.666672 416.950348,278.333344 416.950348,417.000000 
	C402.912903,417.000000 388.925110,417.000000 374.468628,417.000000 
z"/>
<path fill="#000000" opacity="1.000000" stroke="none" 
	d="
M234.531342,1.000000 
	C235.103378,15.633617 235.176895,30.267551 235.331818,44.900623 
	C235.369141,48.425041 233.047043,48.357357 230.620193,48.357227 
	C218.472092,48.356579 206.319702,48.554844 194.178085,48.277378 
	C189.494675,48.170345 188.158707,49.788284 188.255493,54.321697 
	C188.511169,66.297760 188.205566,78.285080 188.392075,90.263733 
	C188.453293,94.194855 187.111343,95.486908 183.201401,95.428551 
	C170.556885,95.239845 157.907089,95.282600 145.260986,95.406136 
	C141.845062,95.439499 140.596375,94.258766 140.611832,90.774788 
	C140.743057,61.155083 140.737656,31.534763 140.886597,1.457315 
	C172.020889,1.000000 203.041794,1.000000 234.531342,1.000000 
z"/>
<path fill="#000000" opacity="1.000000" stroke="none" 
	d="
M141.468658,417.000000 
	C140.887573,414.179932 140.680267,411.359985 140.677551,408.539825 
	C140.653336,383.396667 140.732300,358.253113 140.597610,333.110687 
	C140.576263,329.123688 141.631577,327.492676 145.901886,327.570435 
	C158.386017,327.797791 170.879410,327.782227 183.364029,327.565552 
	C187.433090,327.494965 188.453278,329.083344 188.403442,332.843658 
	C188.240158,345.163269 188.457489,357.487976 188.285629,369.807343 
	C188.234055,373.503632 189.453949,374.761749 193.168457,374.709229 
	C205.321243,374.537354 217.480774,374.802155 229.631943,374.581116 
	C233.843140,374.504517 235.560852,375.562988 235.439789,380.127594 
	C235.122055,392.107544 235.272568,404.099884 235.118256,416.543640 
	C203.979111,417.000000 172.958206,417.000000 141.468658,417.000000 
z"/>
</svg>