<?xml version="1.0" encoding="UTF-8" standalone="no"?>
<!DOCTYPE svg PUBLIC "-//W3C//DTD SVG 1.1//EN" "http://www.w3.org/Graphics/SVG/1.1/DTD/svg11.dtd">
<svg width="100.80" height="100.80" viewBox="0.00 0.00 420.00 420.00" xmlns="http://www.w3.org/2000/svg" xmlns:xlink="http://www.w3.org/1999/xlink">
<g stroke-linecap="round" id="Wordmark_(White)_Copy_2">
<path d="M0.55,0.55 C0.55,0.55 140.11,0.55 140.11,0.55 C140.11,0.55 140.11,93.59 140.11,93.59 C140.11,93.59 186.63,93.59 186.63,93.59 C186.63,93.59 186.63,47.07 186.63,47.07 C186.63,47.07 233.15,47.07 233.15,47.07 C233.15,47.07 233.15,0.55 233.15,0.55 C233.15,0.55 372.71,0.55 372.71,0.55 C372.71,0.55 372.71,140.11 372.71,140.11 C372.71,140.11 326.19,140.11 326.19,140.11 C326.19,140.11 326.19,186.63 326.19,186.63 C326.19,186.63 279.67,186.63 279.67,186.63 C279.67,186.63 279.67,233.15 279.67,233.15 C279.67,233.15 326.19,233.15 326.19,233.15 C326.19,233.15 326.19,279.67 326.19,279.67 C326.19,279.67 372.71,279.67 372.71,279.67 C372.71,279.67 372.71,419.24 372.71,419.24 C372.71,419.24 233.15,419.24 233.15,419.24 C233.15,419.24 233.15,372.71 233.15,372.71 C233.15,372.71 186.63,372.71 186.63,372.71 C186.63,372.71 186.63,326.19 186.63,326.19 C186.63,326.19 140.11,326.19 140.11,326.19 C140.11,326.19 140.11,419.24 140.11,419.24 C140.11,419.24 0.55,419.24 0.55,419.24 C0.55,419.24 0.55,0.55 0.55,0.55 Z" fill="none" stroke="rgb(255, 255, 255)" stroke-width="9.40" stroke-opacity="1.00" stroke-linejoin="miter"/>
</g>
</svg>
