<?xml version="1.0" encoding="UTF-8" standalone="no"?>
<!DOCTYPE svg PUBLIC "-//W3C//DTD SVG 1.1//EN" "http://www.w3.org/Graphics/SVG/1.1/DTD/svg11.dtd">
<svg width="100.80" height="100.80" viewBox="0.00 0.00 420.00 420.00" xmlns="http://www.w3.org/2000/svg" xmlns:xlink="http://www.w3.org/1999/xlink">
<g stroke-linecap="round" id="Wordmark_(White)">
<path d="M-2.37,-2.37 C-2.37,-2.37 155.64,-2.37 155.64,-2.37 C155.64,-2.37 155.64,102.97 155.64,102.97 C155.64,102.97 208.32,102.97 208.32,102.97 C208.32,102.97 208.32,50.30 208.32,50.30 C208.32,50.30 260.99,50.30 260.99,50.30 C260.99,50.30 260.99,-2.37 260.99,-2.37 C260.99,-2.37 419.01,-2.37 419.01,-2.37 C419.01,-2.37 419.01,155.64 419.01,155.64 C419.01,155.64 366.33,155.64 366.33,155.64 C366.33,155.64 366.33,208.32 366.33,208.32 C366.33,208.32 313.66,208.32 313.66,208.32 C313.66,208.32 313.66,260.99 313.66,260.99 C313.66,260.99 366.33,260.99 366.33,260.99 C366.33,260.99 366.33,313.66 366.33,313.66 C366.33,313.66 419.01,313.66 419.01,313.66 C419.01,313.66 419.01,471.68 419.01,471.68 C419.01,471.68 260.99,471.68 260.99,471.68 C260.99,471.68 260.99,419.01 260.99,419.01 C260.99,419.01 208.32,419.01 208.32,419.01 C208.32,419.01 208.32,366.33 208.32,366.33 C208.32,366.33 155.64,366.33 155.64,366.33 C155.64,366.33 155.64,471.68 155.64,471.68 C155.64,471.68 -2.37,471.68 -2.37,471.68 C-2.37,471.68 -2.37,-2.37 -2.37,-2.37 Z" fill="none" stroke="rgb(255, 255, 255)" stroke-width="0.87" stroke-opacity="1.00" stroke-linejoin="miter"/>
<path d="M1051.10,-2.37 C1051.10,-2.37 1209.12,-2.37 1209.12,-2.37 C1209.12,-2.37 1209.12,102.97 1209.12,102.97 C1209.12,102.97 1261.79,102.97 1261.79,102.97 C1261.79,102.97 1261.79,50.30 1261.79,50.30 C1261.79,50.30 1314.47,50.30 1314.47,50.30 C1314.47,50.30 1314.47,-2.37 1314.47,-2.37 C1314.47,-2.37 1472.48,-2.37 1472.48,-2.37 C1472.48,-2.37 1472.48,155.64 1472.48,155.64 C1472.48,155.64 1419.81,155.64 1419.81,155.64 C1419.81,155.64 1419.81,208.32 1419.81,208.32 C1419.81,208.32 1367.14,208.32 1367.14,208.32 C1367.14,208.32 1367.14,260.99 1367.14,260.99 C1367.14,260.99 1419.81,260.99 1419.81,260.99 C1419.81,260.99 1419.81,313.66 1419.81,313.66 C1419.81,313.66 1472.48,313.66 1472.48,313.66 C1472.48,313.66 1472.48,471.68 1472.48,471.68 C1472.48,471.68 1314.47,471.68 1314.47,471.68 C1314.47,471.68 1314.47,419.01 1314.47,419.01 C1314.47,419.01 1261.79,419.01 1261.79,419.01 C1261.79,419.01 1261.79,366.33 1261.79,366.33 C1261.79,366.33 1209.12,366.33 1209.12,366.33 C1209.12,366.33 1209.12,471.68 1209.12,471.68 C1209.12,471.68 1051.10,471.68 1051.10,471.68 C1051.10,471.68 1051.10,-2.37 1051.10,-2.37 Z" fill="none" stroke="rgb(255, 255, 255)" stroke-width="0.87" stroke-opacity="1.00" stroke-linejoin="miter"/>
<path d="M471.69,-2.37 C471.69,-2.37 629.70,-2.37 629.70,-2.37 C629.70,-2.37 629.70,471.69 629.70,471.69 C629.70,471.69 471.69,471.69 471.69,471.69 C471.69,471.69 471.69,-2.37 471.69,-2.37 Z" fill="none" stroke="rgb(255, 255, 255)" stroke-width="0.87" stroke-opacity="1.00" stroke-linejoin="miter"/>
<path d="M840.40,-2.37 C840.40,-2.37 735.06,-2.37 735.06,-2.37 C735.06,-2.37 735.06,50.30 735.06,50.30 C735.06,50.30 682.39,50.30 682.39,50.30 C682.39,50.30 682.39,419.01 682.39,419.01 C682.39,419.01 735.06,419.01 735.06,419.01 C735.06,419.01 735.06,471.69 735.06,471.69 C735.06,471.69 998.43,471.69 998.43,471.69 C998.43,471.69 998.43,313.67 998.43,313.67 C998.43,313.67 840.41,313.67 840.41,313.67 C840.41,313.67 840.41,155.65 840.41,155.65 C840.41,155.65 998.43,155.65 998.43,155.65 C998.43,155.65 998.43,-2.37 998.43,-2.37 C998.43,-2.37 840.40,-2.37 840.40,-2.37 Z" fill="none" stroke="rgb(255, 255, 255)" stroke-width="0.87" stroke-opacity="1.00" stroke-linejoin="miter"/>
</g>
</svg>
