<?xml version="1.0" encoding="UTF-8" ?>
<svg version="1.1" width="415" height="415" xmlns="http://www.w3.org/2000/svg" shape-rendering="crispEdges">
<rect x="37" y="0" width="165" height="180" fill="#FFFFFF" />
<rect x="310" y="0" width="166" height="171" fill="#FFFFFF" />
<rect x="256" y="56" width="54" height="400" fill="#FFFFFF" />
<rect x="202" y="113" width="54" height="139" fill="#FFFFFF" />
<rect x="310" y="171" width="111" height="57" fill="#FFFFFF" />
<rect x="37" y="180" width="67" height="332" fill="#FFFFFF" />
<rect x="109" y="180" width="23" height="1" fill="#FFFFFF" />
<rect x="137" y="180" width="65" height="4" fill="#FFFFFF" />
<rect x="104" y="181" width="4" height="331" fill="#FFFFFF" />
<rect x="109" y="181" width="22" height="1" fill="#FFFFFF" />
<rect x="132" y="181" width="4" height="23" fill="#FFFFFF" />
<rect x="109" y="182" width="21" height="1" fill="#FFFFFF" />
<rect x="131" y="182" width="1" height="22" fill="#FFFFFF" />
<rect x="109" y="183" width="20" height="1" fill="#FFFFFF" />
<rect x="130" y="183" width="1" height="20" fill="#FFFFFF" />
<rect x="109" y="184" width="19" height="1" fill="#FFFFFF" />
<rect x="129" y="184" width="1" height="19" fill="#FFFFFF" />
<rect x="141" y="184" width="61" height="4" fill="#FFFFFF" />
<rect x="108" y="185" width="1" height="327" fill="#FFFFFF" />
<rect x="111" y="185" width="17" height="1" fill="#FFFFFF" />
<rect x="136" y="185" width="4" height="23" fill="#FFFFFF" />
<rect x="109" y="186" width="2" height="326" fill="#FFFFFF" />
<rect x="113" y="186" width="15" height="1" fill="#FFFFFF" />
<rect x="111" y="187" width="2" height="325" fill="#FFFFFF" />
<rect x="115" y="187" width="13" height="1" fill="#FFFFFF" />
<rect x="113" y="188" width="2" height="324" fill="#FFFFFF" />
<rect x="117" y="188" width="11" height="1" fill="#FFFFFF" />
<rect x="145" y="188" width="57" height="8" fill="#FFFFFF" />
<rect x="115" y="189" width="2" height="323" fill="#FFFFFF" />
<rect x="118" y="189" width="10" height="2" fill="#FFFFFF" />
<rect x="140" y="189" width="4" height="23" fill="#FFFFFF" />
<rect x="117" y="191" width="1" height="321" fill="#FFFFFF" />
<rect x="119" y="191" width="9" height="1" fill="#FFFFFF" />
<rect x="118" y="192" width="1" height="320" fill="#FFFFFF" />
<rect x="120" y="192" width="8" height="2" fill="#FFFFFF" />
<rect x="119" y="194" width="1" height="318" fill="#FFFFFF" />
<rect x="121" y="194" width="7" height="1" fill="#FFFFFF" />
<rect x="120" y="195" width="1" height="13" fill="#FFFFFF" />
<rect x="122" y="195" width="6" height="2" fill="#FFFFFF" />
<rect x="149" y="196" width="53" height="4" fill="#FFFFFF" />
<rect x="121" y="197" width="1" height="11" fill="#FFFFFF" />
<rect x="123" y="197" width="5" height="1" fill="#FFFFFF" />
<rect x="144" y="197" width="4" height="17" fill="#FFFFFF" />
<rect x="122" y="198" width="1" height="10" fill="#FFFFFF" />
<rect x="124" y="198" width="4" height="2" fill="#FFFFFF" />
<rect x="123" y="200" width="1" height="8" fill="#FFFFFF" />
<rect x="125" y="200" width="3" height="1" fill="#FFFFFF" />
<rect x="153" y="200" width="49" height="21" fill="#FFFFFF" />
<rect x="124" y="201" width="1" height="7" fill="#FFFFFF" />
<rect x="127" y="201" width="1" height="1" fill="#FFFFFF" />
<rect x="148" y="201" width="4" height="15" fill="#FFFFFF" />
<rect x="125" y="202" width="2" height="3" fill="#FFFFFF" />
<rect x="128" y="203" width="1" height="17" fill="#FFFFFF" />
<rect x="129" y="204" width="2" height="25" fill="#FFFFFF" />
<rect x="133" y="204" width="3" height="1" fill="#FFFFFF" />
<rect x="125" y="205" width="1" height="3" fill="#FFFFFF" />
<rect x="127" y="205" width="1" height="14" fill="#FFFFFF" />
<rect x="131" y="205" width="2" height="26" fill="#FFFFFF" />
<rect x="134" y="205" width="2" height="1" fill="#FFFFFF" />
<rect x="133" y="206" width="1" height="306" fill="#FFFFFF" />
<rect x="135" y="206" width="1" height="1" fill="#FFFFFF" />
<rect x="134" y="207" width="1" height="305" fill="#FFFFFF" />
<rect x="126" y="208" width="1" height="10" fill="#FFFFFF" />
<rect x="135" y="208" width="1" height="304" fill="#FFFFFF" />
<rect x="137" y="208" width="3" height="1" fill="#FFFFFF" />
<rect x="121" y="209" width="3" height="24" fill="#FFFFFF" />
<rect x="136" y="209" width="1" height="303" fill="#FFFFFF" />
<rect x="138" y="209" width="2" height="1" fill="#FFFFFF" />
<rect x="137" y="210" width="1" height="302" fill="#FFFFFF" />
<rect x="139" y="210" width="1" height="1" fill="#FFFFFF" />
<rect x="125" y="211" width="1" height="6" fill="#FFFFFF" />
<rect x="138" y="211" width="1" height="301" fill="#FFFFFF" />
<rect x="139" y="212" width="1" height="300" fill="#FFFFFF" />
<rect x="141" y="212" width="3" height="1" fill="#FFFFFF" />
<rect x="140" y="213" width="1" height="299" fill="#FFFFFF" />
<rect x="143" y="213" width="1" height="1" fill="#FFFFFF" />
<rect x="141" y="214" width="2" height="298" fill="#FFFFFF" />
<rect x="145" y="214" width="3" height="1" fill="#FFFFFF" />
<rect x="143" y="215" width="2" height="297" fill="#FFFFFF" />
<rect x="147" y="215" width="1" height="1" fill="#FFFFFF" />
<rect x="145" y="216" width="2" height="296" fill="#FFFFFF" />
<rect x="149" y="216" width="3" height="1" fill="#FFFFFF" />
<rect x="147" y="217" width="2" height="295" fill="#FFFFFF" />
<rect x="150" y="217" width="2" height="1" fill="#FFFFFF" />
<rect x="125" y="218" width="1" height="14" fill="#FFFFFF" />
<rect x="149" y="218" width="1" height="294" fill="#FFFFFF" />
<rect x="151" y="218" width="1" height="1" fill="#FFFFFF" />
<rect x="126" y="219" width="1" height="13" fill="#FFFFFF" />
<rect x="150" y="219" width="1" height="293" fill="#FFFFFF" />
<rect x="127" y="220" width="1" height="12" fill="#FFFFFF" />
<rect x="151" y="220" width="1" height="292" fill="#FFFFFF" />
<rect x="155" y="221" width="47" height="1" fill="#FFFFFF" />
<rect x="153" y="222" width="2" height="26" fill="#FFFFFF" />
<rect x="157" y="222" width="45" height="1" fill="#FFFFFF" />
<rect x="155" y="223" width="2" height="25" fill="#FFFFFF" />
<rect x="159" y="223" width="43" height="1" fill="#FFFFFF" />
<rect x="157" y="224" width="2" height="24" fill="#FFFFFF" />
<rect x="161" y="224" width="41" height="1" fill="#FFFFFF" />
<rect x="159" y="225" width="2" height="23" fill="#FFFFFF" />
<rect x="163" y="225" width="39" height="1" fill="#FFFFFF" />
<rect x="161" y="226" width="2" height="22" fill="#FFFFFF" />
<rect x="165" y="226" width="37" height="1" fill="#FFFFFF" />
<rect x="163" y="227" width="2" height="21" fill="#FFFFFF" />
<rect x="167" y="227" width="35" height="1" fill="#FFFFFF" />
<rect x="165" y="228" width="2" height="24" fill="#FFFFFF" />
<rect x="169" y="228" width="33" height="1" fill="#FFFFFF" />
<rect x="310" y="228" width="56" height="284" fill="#FFFFFF" />
<rect x="128" y="229" width="1" height="3" fill="#FFFFFF" />
<rect x="130" y="229" width="1" height="1" fill="#FFFFFF" />
<rect x="167" y="229" width="2" height="23" fill="#FFFFFF" />
<rect x="170" y="229" width="32" height="1" fill="#FFFFFF" />
<rect x="129" y="230" width="1" height="7" fill="#FFFFFF" />
<rect x="169" y="230" width="1" height="23" fill="#FFFFFF" />
<rect x="171" y="230" width="31" height="1" fill="#FFFFFF" />
<rect x="130" y="231" width="1" height="7" fill="#FFFFFF" />
<rect x="132" y="231" width="1" height="1" fill="#FFFFFF" />
<rect x="170" y="231" width="1" height="23" fill="#FFFFFF" />
<rect x="172" y="231" width="30" height="1" fill="#FFFFFF" />
<rect x="131" y="232" width="1" height="7" fill="#FFFFFF" />
<rect x="171" y="232" width="1" height="23" fill="#FFFFFF" />
<rect x="173" y="232" width="29" height="1" fill="#FFFFFF" />
<rect x="122" y="233" width="2" height="1" fill="#FFFFFF" />
<rect x="125" y="233" width="3" height="25" fill="#FFFFFF" />
<rect x="172" y="233" width="1" height="23" fill="#FFFFFF" />
<rect x="174" y="233" width="28" height="1" fill="#FFFFFF" />
<rect x="121" y="234" width="1" height="33" fill="#FFFFFF" />
<rect x="123" y="234" width="1" height="1" fill="#FFFFFF" />
<rect x="173" y="234" width="1" height="22" fill="#FFFFFF" />
<rect x="175" y="234" width="27" height="1" fill="#FFFFFF" />
<rect x="122" y="235" width="1" height="31" fill="#FFFFFF" />
<rect x="174" y="235" width="1" height="21" fill="#FFFFFF" />
<rect x="176" y="235" width="26" height="1" fill="#FFFFFF" />
<rect x="123" y="236" width="1" height="29" fill="#FFFFFF" />
<rect x="175" y="236" width="1" height="20" fill="#FFFFFF" />
<rect x="181" y="236" width="21" height="1" fill="#FFFFFF" />
<rect x="128" y="237" width="1" height="27" fill="#FFFFFF" />
<rect x="176" y="237" width="5" height="19" fill="#FFFFFF" />
<rect x="182" y="237" width="20" height="1" fill="#FFFFFF" />
<rect x="129" y="238" width="1" height="25" fill="#FFFFFF" />
<rect x="181" y="238" width="1" height="22" fill="#FFFFFF" />
<rect x="183" y="238" width="19" height="1" fill="#FFFFFF" />
<rect x="130" y="239" width="1" height="23" fill="#FFFFFF" />
<rect x="182" y="239" width="1" height="21" fill="#FFFFFF" />
<rect x="184" y="239" width="18" height="1" fill="#FFFFFF" />
<rect x="131" y="240" width="1" height="21" fill="#FFFFFF" />
<rect x="183" y="240" width="1" height="20" fill="#FFFFFF" />
<rect x="189" y="240" width="13" height="4" fill="#FFFFFF" />
<rect x="184" y="241" width="4" height="19" fill="#FFFFFF" />
<rect x="193" y="244" width="9" height="1" fill="#FFFFFF" />
<rect x="188" y="245" width="5" height="15" fill="#FFFFFF" />
<rect x="194" y="245" width="8" height="1" fill="#FFFFFF" />
<rect x="193" y="246" width="1" height="18" fill="#FFFFFF" />
<rect x="195" y="246" width="7" height="1" fill="#FFFFFF" />
<rect x="194" y="247" width="1" height="18" fill="#FFFFFF" />
<rect x="196" y="247" width="6" height="1" fill="#FFFFFF" />
<rect x="195" y="248" width="1" height="17" fill="#FFFFFF" />
<rect x="201" y="248" width="1" height="5" fill="#FFFFFF" />
<rect x="152" y="249" width="12" height="263" fill="#FFFFFF" />
<rect x="196" y="249" width="4" height="17" fill="#FFFFFF" />
<rect x="202" y="252" width="2" height="2" fill="#FFFFFF" />
<rect x="205" y="252" width="51" height="4" fill="#FFFFFF" />
<rect x="164" y="253" width="5" height="259" fill="#FFFFFF" />
<rect x="200" y="253" width="1" height="15" fill="#FFFFFF" />
<rect x="204" y="253" width="1" height="3" fill="#FFFFFF" />
<rect x="169" y="254" width="1" height="258" fill="#FFFFFF" />
<rect x="201" y="254" width="1" height="14" fill="#FFFFFF" />
<rect x="203" y="254" width="1" height="1" fill="#FFFFFF" />
<rect x="170" y="255" width="1" height="257" fill="#FFFFFF" />
<rect x="202" y="255" width="1" height="13" fill="#FFFFFF" />
<rect x="171" y="256" width="1" height="256" fill="#FFFFFF" />
<rect x="177" y="256" width="4" height="1" fill="#FFFFFF" />
<rect x="203" y="256" width="1" height="12" fill="#FFFFFF" />
<rect x="209" y="256" width="47" height="4" fill="#FFFFFF" />
<rect x="172" y="257" width="5" height="255" fill="#FFFFFF" />
<rect x="178" y="257" width="3" height="1" fill="#FFFFFF" />
<rect x="204" y="257" width="4" height="11" fill="#FFFFFF" />
<rect x="126" y="258" width="2" height="2" fill="#FFFFFF" />
<rect x="177" y="258" width="1" height="254" fill="#FFFFFF" />
<rect x="179" y="258" width="2" height="1" fill="#FFFFFF" />
<rect x="178" y="259" width="1" height="253" fill="#FFFFFF" />
<rect x="180" y="259" width="1" height="1" fill="#FFFFFF" />
<rect x="125" y="260" width="1" height="7" fill="#FFFFFF" />
<rect x="127" y="260" width="1" height="2" fill="#FFFFFF" />
<rect x="179" y="260" width="1" height="252" fill="#FFFFFF" />
<rect x="189" y="260" width="4" height="1" fill="#FFFFFF" />
<rect x="213" y="260" width="43" height="4" fill="#FFFFFF" />
<rect x="180" y="261" width="9" height="251" fill="#FFFFFF" />
<rect x="190" y="261" width="3" height="1" fill="#FFFFFF" />
<rect x="208" y="261" width="4" height="11" fill="#FFFFFF" />
<rect x="126" y="262" width="1" height="4" fill="#FFFFFF" />
<rect x="131" y="262" width="1" height="32" fill="#FFFFFF" />
<rect x="189" y="262" width="1" height="250" fill="#FFFFFF" />
<rect x="191" y="262" width="2" height="1" fill="#FFFFFF" />
<rect x="130" y="263" width="1" height="33" fill="#FFFFFF" />
<rect x="190" y="263" width="1" height="249" fill="#FFFFFF" />
<rect x="192" y="263" width="1" height="1" fill="#FFFFFF" />
<rect x="127" y="264" width="1" height="1" fill="#FFFFFF" />
<rect x="129" y="264" width="1" height="34" fill="#FFFFFF" />
<rect x="191" y="264" width="1" height="248" fill="#FFFFFF" />
<rect x="217" y="264" width="39" height="8" fill="#FFFFFF" />
<rect x="192" y="265" width="2" height="247" fill="#FFFFFF" />
<rect x="212" y="265" width="4" height="7" fill="#FFFFFF" />
<rect x="123" y="266" width="1" height="63" fill="#FFFFFF" />
<rect x="127" y="266" width="1" height="35" fill="#FFFFFF" />
<rect x="194" y="266" width="2" height="246" fill="#FFFFFF" />
<rect x="198" y="266" width="2" height="1" fill="#FFFFFF" />
<rect x="122" y="267" width="1" height="57" fill="#FFFFFF" />
<rect x="126" y="267" width="1" height="35" fill="#FFFFFF" />
<rect x="196" y="267" width="2" height="245" fill="#FFFFFF" />
<rect x="121" y="268" width="1" height="51" fill="#FFFFFF" />
<rect x="125" y="268" width="1" height="35" fill="#FFFFFF" />
<rect x="198" y="268" width="2" height="244" fill="#FFFFFF" />
<rect x="205" y="268" width="3" height="1" fill="#FFFFFF" />
<rect x="200" y="269" width="5" height="130" fill="#FFFFFF" />
<rect x="206" y="269" width="2" height="1" fill="#FFFFFF" />
<rect x="205" y="270" width="1" height="129" fill="#FFFFFF" />
<rect x="207" y="270" width="1" height="1" fill="#FFFFFF" />
<rect x="206" y="271" width="1" height="128" fill="#FFFFFF" />
<rect x="207" y="272" width="1" height="127" fill="#FFFFFF" />
<rect x="225" y="272" width="31" height="127" fill="#FFFFFF" />
<rect x="208" y="273" width="17" height="126" fill="#FFFFFF" />
<rect x="366" y="284" width="55" height="228" fill="#FFFFFF" />
<rect x="132" y="294" width="1" height="218" fill="#FFFFFF" />
<rect x="131" y="296" width="1" height="216" fill="#FFFFFF" />
<rect x="130" y="298" width="1" height="214" fill="#FFFFFF" />
<rect x="129" y="300" width="1" height="212" fill="#FFFFFF" />
<rect x="127" y="302" width="1" height="8" fill="#FFFFFF" />
<rect x="126" y="303" width="1" height="9" fill="#FFFFFF" />
<rect x="125" y="304" width="1" height="10" fill="#FFFFFF" />
<rect x="128" y="310" width="1" height="202" fill="#FFFFFF" />
<rect x="127" y="312" width="1" height="200" fill="#FFFFFF" />
<rect x="126" y="314" width="1" height="198" fill="#FFFFFF" />
<rect x="125" y="316" width="1" height="196" fill="#FFFFFF" />
<rect x="120" y="319" width="1" height="193" fill="#FFFFFF" />
<rect x="121" y="324" width="1" height="188" fill="#FFFFFF" />
<rect x="124" y="325" width="1" height="9" fill="#FFFFFF" />
<rect x="122" y="329" width="1" height="183" fill="#FFFFFF" />
<rect x="123" y="334" width="1" height="178" fill="#FFFFFF" />
<rect x="421" y="341" width="55" height="171" fill="#FFFFFF" />
<rect x="124" y="357" width="1" height="155" fill="#FFFFFF" />
<rect x="200" y="399" width="2" height="113" fill="#FFFFFF" />
</svg>
